#N canvas 242 25 1118 771 12;
#X obj 147 724 outlet~ outL-\$1;
#X obj 285 717 outlet~ outR-\$1;
#X obj 248 92 r knob1-\$1;
#X obj 533 90 r knob2-\$1;
#X obj 642 89 r knob3-\$1;
#X obj 251 467 waveplayer~;
#X obj 417 89 r loadbang-\$1;
#X obj 223 548 *~ 0.5;
#X obj 699 185 r waveplayer-open;
#X obj 248 196 * 4;
#X obj 249 248 sig~;
#X obj 249 282 lop~ 10;
#X connect 2 0 9 0;
#X connect 5 0 7 0;
#X connect 7 0 0 0;
#X connect 7 0 1 0;
#X connect 8 0 5 0;
#X connect 9 0 10 0;
#X connect 10 0 11 0;
#X connect 11 0 5 0;
