#N canvas 185 26 1118 771 12;
#X obj 147 724 outlet~ outL-\$1;
#X obj 214 288 waveplayer~;
#X obj 741 156 r loadbang-\$1;
#X obj 223 444 *~ 0.5;
#X obj 374 160 r waveplayer-open;
#X obj 658 248 r knob1-\$1;
#X obj 460 220 r knob2-\$1;
#X obj 157 175 sig~ 1;
#X obj 470 595 clip~ -1 1;
#X obj 470 560 *~ 0.9;
#X obj 410 683 delwrite~ del-\$1 2000;
#X obj 417 490 vd~ del-\$1;
#X obj 461 300 *~ 2000;
#X obj 437 397 lop~ 2;
#X obj 597 418 * 0.95;
#X obj 454 333 +~ 5;
#X obj 458 249 t f f;
#X obj 458 273 *;
#X connect 1 0 3 0;
#X connect 3 0 0 0;
#X connect 3 0 10 0;
#X connect 4 0 1 0;
#X connect 5 0 14 0;
#X connect 6 0 16 0;
#X connect 7 0 1 0;
#X connect 8 0 10 0;
#X connect 9 0 8 0;
#X connect 11 0 9 0;
#X connect 11 0 0 0;
#X connect 12 0 15 0;
#X connect 13 0 11 0;
#X connect 14 0 9 1;
#X connect 15 0 13 0;
#X connect 16 0 17 0;
#X connect 16 1 17 1;
#X connect 17 0 12 0;
