#N canvas 302 25 1118 771 12;
#X obj 16 34 inlet~ inL-\$1;
#X obj 126 34 inlet~ inR-\$1;
#X obj 243 31 r notesIn-\$1;
#X obj 634 20 r auxIn-\$1;
#X obj 633 43 r expIn-\$1;
#X obj 633 68 r fsIn-\$1;
#X obj 351 31 r ctrlIn-\$1;
#X obj 243 72 s notesOut-\$1;
#X obj 346 68 s ctrlOut-\$1;
#X obj 147 724 outlet~ outL-\$1;
#X obj 285 717 outlet~ outR-\$1;
#X obj 237 226 r knob1-\$1;
#X obj 572 119 r knob2-\$1;
#X obj 681 118 r knob3-\$1;
#X obj 251 547 waveplayer~;
#X obj 248 338 sig~ 1;
#X obj 248 373 lop~ 10;
#X obj 244 276 * 8;
#X obj 247 308 - 4;
#X obj 470 281 r loadbang-\$1;
#X obj 325 604 print;
#X obj 223 628 *~ 0.5;
#X obj 746 233 r waveplayer-open;
#X connect 2 0 7 0;
#X connect 11 0 17 0;
#X connect 14 0 21 0;
#X connect 14 1 20 0;
#X connect 15 0 16 0;
#X connect 16 0 14 0;
#X connect 17 0 18 0;
#X connect 18 0 15 0;
#X connect 21 0 9 0;
#X connect 21 0 10 0;
#X connect 22 0 14 0;
