#N canvas 322 25 1118 771 12;
#X obj 147 724 outlet~ outL-\$1;
#X obj 285 717 outlet~ outR-\$1;
#X obj 533 90 r knob2-\$1;
#X obj 642 89 r knob3-\$1;
#X obj 251 467 waveplayer~;
#X obj 417 89 r loadbang-\$1;
#X obj 223 548 *~ 0.5;
#X obj 489 284 r waveplayer-open;
#X obj 82 233 sig~ 1;
#X obj 237 303 *~;
#X obj 282 173 pow 2;
#X obj 282 226 lop~ 10;
#X obj 83 104 * 8;
#X obj 83 132 - 4;
#X obj 280 202 * 2;
#X obj 273 67 r knob1-\$1;
#X obj 83 75 r knob2-\$1;
#X obj 194 362 +~;
#X obj 82 183 i;
#X obj 82 157 * 4;
#X obj 80 206 / 4;
#X obj 82 268 lop~ 50;
#X obj 193 131 sqrt;
#X obj 195 187 osc~ 0;
#X obj 195 217 *~ 100;
#X obj 193 156 * 8;
#X obj 187 249 clip~ -1 1;
#X obj 89 478 s flashit;
#X obj 24 425 threshold~ 1.01 100 0.99 100;
#X connect 4 0 6 0;
#X connect 6 0 0 0;
#X connect 6 0 1 0;
#X connect 7 0 4 0;
#X connect 8 0 21 0;
#X connect 9 0 17 1;
#X connect 10 0 14 0;
#X connect 11 0 9 1;
#X connect 12 0 13 0;
#X connect 13 0 19 0;
#X connect 14 0 11 0;
#X connect 15 0 10 0;
#X connect 15 0 22 0;
#X connect 16 0 12 0;
#X connect 17 0 4 0;
#X connect 18 0 20 0;
#X connect 19 0 18 0;
#X connect 20 0 8 0;
#X connect 21 0 17 0;
#X connect 21 0 28 0;
#X connect 22 0 25 0;
#X connect 23 0 24 0;
#X connect 24 0 26 0;
#X connect 25 0 23 0;
#X connect 26 0 9 0;
#X connect 28 0 27 0;
#X connect 28 1 27 0;
