#N canvas 230 25 850 723 12;
#X obj 80 50 r knob2-\$1;
#X obj 376 624 outlet~ outL-\$1;
#X obj 380 485 waveplayer~;
#X obj 417 89 r loadbang-\$1;
#X obj 592 363 r waveplayer-open;
#X obj 145 282 sig~ 1;
#X obj 146 319 lop~ 10;
#X obj 514 294 *~;
#X obj 512 185 sqrt;
#X obj 512 210 * 12;
#X obj 559 164 pow 2;
#X obj 559 217 lop~ 10;
#X obj 492 251 osc~ 0;
#X obj 557 193 * 2;
#X obj 554 125 r knob1-\$1;
#X obj 373 423 +~;
#X obj 177 554 s flashit;
#X obj 127 486 threshold~ 1.01 100 0.99 100;
#X obj 372 548 *~ 1;
#X obj 139 133 i;
#X obj 138 162 & 992;
#X obj 140 102 * 1023;
#X obj 140 191 / 1023;
#X obj 140 219 - 0.5;
#X obj 142 247 * 8;
#X text 179 162 &= 0x3e0 \;;
#X text 190 133 step it like the original kaleidoloop;
#X connect 0 0 21 0;
#X connect 2 0 18 0;
#X connect 4 0 2 0;
#X connect 5 0 6 0;
#X connect 6 0 15 0;
#X connect 6 0 17 0;
#X connect 7 0 15 1;
#X connect 8 0 9 0;
#X connect 9 0 12 0;
#X connect 10 0 13 0;
#X connect 11 0 7 1;
#X connect 12 0 7 0;
#X connect 13 0 11 0;
#X connect 14 0 10 0;
#X connect 14 0 8 0;
#X connect 15 0 2 0;
#X connect 17 0 16 0;
#X connect 17 1 16 0;
#X connect 18 0 1 0;
#X connect 19 0 20 0;
#X connect 20 0 22 0;
#X connect 21 0 19 0;
#X connect 22 0 23 0;
#X connect 23 0 24 0;
#X connect 24 0 5 0;
