#N canvas 674 50 1118 787 12;
#X obj 99 619 outlet~ outL-\$1;
#X obj 99 193 waveplayer~;
#X obj 444 40 r loadbang-\$1;
#X obj 99 97 r waveplayer-open;
#X obj 243 41 r knob1-\$1;
#X obj 99 301 tanh~;
#X obj 99 272 *~, f 7;
#X obj 243 102 lop~ 8;
#X obj 243 136 *~, f 5;
#X obj 243 190 +~ 1;
#X obj 243 168 *~ 200;
#X obj 243 69 sig~;
#X obj 39 97 sig~ 1;
#X obj 244 507 pack 0 10;
#X obj 244 531 line~;
#X obj 99 561 bob~, f 42;
#X obj 244 429 pow 2;
#X obj 244 405 r knob2-\$1;
#X obj 390 526 sig~ 2;
#X obj 244 453 * 2500;
#X obj 244 478 + 75;
#X obj 99 331 *~ 0.5;
#X text 241 376 cutoff freq;
#X text 385 502 resonance;
#X obj 99 589 *~ 1;
#X connect 1 0 6 0;
#X connect 3 0 1 0;
#X connect 4 0 11 0;
#X connect 5 0 21 0;
#X connect 6 0 5 0;
#X connect 7 0 8 0;
#X connect 7 0 8 1;
#X connect 8 0 10 0;
#X connect 9 0 6 1;
#X connect 10 0 9 0;
#X connect 11 0 7 0;
#X connect 12 0 1 0;
#X connect 13 0 14 0;
#X connect 14 0 15 1;
#X connect 15 0 24 0;
#X connect 16 0 19 0;
#X connect 17 0 16 0;
#X connect 18 0 15 2;
#X connect 19 0 20 0;
#X connect 20 0 13 0;
#X connect 21 0 15 0;
#X connect 24 0 0 0;
