#N canvas 192 25 1000 734 10;
#X declare -path lib;
#X obj 198 535 dac~;
#X obj 57 31 declare -path lib;
#N canvas 117 114 810 356 init 0;
#X msg 145 167 \; pd dsp 1;
#X msg 472 204 1;
#X obj 648 147 s osc-init;
#X obj 238 42 loadbang;
#X obj 581 231 s load-midi-config;
#X obj 240 99 t b b b b b b b b b, f 55;
#X obj 48 181 s unmute-dac;
#X obj 590 174 s load-modes;
#X obj 472 235 s set-mode-num;
#X obj 382 231 s scanfiles;
#X obj 322 258 s current-file-index;
#X msg 330 220 0;
#X obj 228 237 s rec-led;
#X msg 290 159 0;
#X connect 1 0 8 0;
#X connect 3 0 5 0;
#X connect 5 0 6 0;
#X connect 5 1 0 0;
#X connect 5 2 13 0;
#X connect 5 3 11 0;
#X connect 5 4 9 0;
#X connect 5 5 1 0;
#X connect 5 6 4 0;
#X connect 5 7 7 0;
#X connect 5 8 2 0;
#X connect 11 0 10 0;
#X connect 13 0 12 0;
#X restore 286 31 pd init;
#N canvas 127 296 838 425 leds 0;
#X obj 351 33 array define led1 3;
#X obj 351 55 array define led2 3;
#N canvas 128 142 991 503 test 0;
#X obj 376 314 s oscOut;
#X obj 385 161 random 255;
#X obj 560 159 random 255;
#X obj 400 184 random 255;
#X obj 575 182 random 255;
#X obj 472 207 random 255;
#X obj 600 205 random 255;
#X obj 376 50 metro 250;
#X msg 377 293 send /leds \$1 \$2 \$3 \$4 \$5 \$6, f 65;
#X obj 384 89 t b b b b b b, f 53;
#X obj 385 254 pack 0 0 0 0 0 0, f 50;
#X connect 1 0 10 0;
#X connect 2 0 10 3;
#X connect 3 0 10 1;
#X connect 4 0 10 4;
#X connect 5 0 10 2;
#X connect 6 0 10 5;
#X connect 7 0 9 0;
#X connect 8 0 0 0;
#X connect 9 0 1 0;
#X connect 9 1 3 0;
#X connect 9 2 5 0;
#X connect 9 3 2 0;
#X connect 9 4 4 0;
#X connect 9 5 6 0;
#X connect 10 0 8 0;
#X restore 496 74 pd test;
#X obj 353 127 r led-flip;
#X obj 326 190 array get led1;
#X obj 424 191 array get led2;
#X obj 325 217 unpack 0 0 0;
#X obj 424 217 unpack 0 0 0;
#X obj 323 323 s oscOut;
#N canvas 585 50 450 300 ledall 0;
#X obj 64 37 r ledall;
#X obj 40 110 s led1-set;
#X obj 227 103 s led2-set;
#X obj 64 65 t a a, f 32;
#X connect 0 0 3 0;
#X connect 3 0 1 0;
#X connect 3 1 2 0;
#X restore 493 47 pd ledall;
#X obj 592 60 array set led1;
#X obj 592 37 r led1-set;
#X obj 593 79 r led2-set;
#X obj 593 102 array set led2;
#X obj 324 249 pack 0 0 0 0 0 0, f 43;
#X obj 353 148 t b b;
#X msg 323 292 send /leds \$1 \$2 \$3 \$4 \$5 \$6, f 65;
#N canvas 102 282 710 439 rec-led 0;
#X obj 121 80 t b f;
#X obj 94 150 s led-flip;
#X obj 196 133 sel 0 1, f 40;
#X obj 368 200 s led2-set;
#X msg 198 164 0 100 0;
#X msg 369 164 100 0 0;
#X obj 191 206 s led2-set;
#X obj 112 34 r rec-led;
#X connect 0 0 1 0;
#X connect 0 1 2 0;
#X connect 2 0 4 0;
#X connect 2 1 5 0;
#X connect 4 0 6 0;
#X connect 5 0 3 0;
#X connect 7 0 0 0;
#X restore 106 86 pd rec-led;
#N canvas 102 282 1338 485 mode-led 0;
#X obj 244 209 t b f;
#X obj 85 377 s led-flip;
#X msg 292 335 54 6 127;
#X msg 443 341 0 8 85;
#X msg 507 342 0 69 9;
#X msg 655 361 71 1 1;
#X msg 582 350 71 16 1;
#X msg 359 339 127 0 72;
#X obj 472 67 t b b;
#X msg 495 129 100 100 100;
#X obj 413 152 s led-flip;
#X obj 567 10 r flash-all-leds;
#X obj 495 151 s led3-set;
#X obj 597 128 delay 75;
#X obj 112 34 r mode-num;
#X obj 597 163 v mode-num;
#X obj 270 432 s led1-set;
#X obj 343 430 s led1-set;
#X obj 416 426 s led1-set;
#X obj 490 429 s led1-set;
#X obj 567 429 s led1-set;
#X obj 647 432 s led1-set;
#X obj 319 262 sel 1 2 3 4 5 6 7, f 58;
#X obj 741 428 s led1-set;
#X msg 749 357 71 71 71;
#X connect 0 0 1 0;
#X connect 0 1 22 0;
#X connect 2 0 16 0;
#X connect 3 0 18 0;
#X connect 4 0 19 0;
#X connect 5 0 21 0;
#X connect 6 0 20 0;
#X connect 7 0 17 0;
#X connect 8 0 10 0;
#X connect 8 1 9 0;
#X connect 9 0 12 0;
#X connect 11 0 8 0;
#X connect 11 0 13 0;
#X connect 13 0 15 0;
#X connect 14 0 0 0;
#X connect 15 0 0 0;
#X connect 22 0 2 0;
#X connect 22 1 7 0;
#X connect 22 2 3 0;
#X connect 22 3 4 0;
#X connect 22 4 6 0;
#X connect 22 5 24 0;
#X connect 24 0 23 0;
#X restore 106 49 pd mode-led;
#X connect 3 0 15 0;
#X connect 4 0 6 0;
#X connect 5 0 7 0;
#X connect 6 0 14 0;
#X connect 6 1 14 1;
#X connect 6 2 14 2;
#X connect 7 0 14 3;
#X connect 7 1 14 4;
#X connect 7 2 14 5;
#X connect 11 0 10 0;
#X connect 12 0 13 0;
#X connect 14 0 16 0;
#X connect 15 0 4 0;
#X connect 15 1 5 0;
#X connect 16 0 8 0;
#X restore 286 76 pd leds;
#N canvas 92 117 511 477 license 0;
#X text 19 14 Unless otherwise noted \, all files are copyright Critter
& Guitari and can be distributed freely according the terms of the
BSD 3-Clause License below. Where files have been imported from other
sources \, comments in those files indicate the authors and applicable
license. --- Begin BSD 3-Clause License --- Copyright (c) 2023 \, Critter
& Guitari All rights reserved. Redistribution and use in source and
binary forms \, with or without modification \, are permitted provided
that the following conditions are met: 1 Redistributions of source
code must retain the above copyright notice \, this list of conditions
and the following disclaimer. 2 Redistributions in binary form must
reproduce the above copyright notice \, this list of conditions and
the following disclaimer in the documentation and/or other materials
provided with the distribution. 3 Neither the name of the copyright
holder nor the names of its contributors may be used to endorse or
promote products derived from this software without specific prior
written permission. THIS SOFTWARE IS PROVIDED BY THE COPYRIGHT HOLDERS
AND CONTRIBUTORS "AS IS" AND ANY EXPRESS OR IMPLIED WARRANTIES \, INCLUDING
\, BUT NOT LIMITED TO \, THE IMPLIED WARRANTIES OF MERCHANTABILITY
AND FITNESS FOR A PARTICULAR PURPOSE ARE DISCLAIMED. IN NO EVENT SHALL
THE COPYRIGHT HOLDER OR CONTRIBUTORS BE LIABLE FOR ANY DIRECT \, INDIRECT
\, INCIDENTAL \, SPECIAL \, EXEMPLARY \, OR CONSEQUENTIAL DAMAGES (INCLUDING
\, BUT NOT LIMITED TO \, PROCUREMENT OF SUBSTITUTE GOODS OR SERVICES
\; LOSS OF USE \, DATA \, OR PROFITS \; OR BUSINESS INTERRUPTION) HOWEVER
CAUSED AND ON ANY THEORY OF LIABILITY \, WHETHER IN CONTRACT \, STRICT
LIABILITY \, OR TORT (INCLUDING NEGLIGENCE OR OTHERWISE) ARISING IN
ANY WAY OUT OF THE USE OF THIS SOFTWARE \, EVEN IF ADVISED OF THE POSSIBILITY
OF SUCH DAMAGE.;
#X restore 57 54 pd license;
#N canvas 96 71 1042 537 oscio 0;
#X obj 109 227 udpsend;
#X obj 134 192 packOSC;
#X obj 291 172 udpreceive;
#X obj 291 194 unpackOSC;
#X obj 291 222 s oscIn;
#X obj 131 163 r oscOut;
#X msg 109 137 connect localhost 4001;
#X msg 291 142 port 4000;
#X msg 51 84 connect 192.168.1.129 4001;
#X msg 200 201 disconnect;
#X obj 109 253 sel 1;
#X obj 109 290 s net-connected;
#X obj 220 48 r osc-init, f 11;
#X text 94 43 connect osc;
#X obj 456 68 r oscIn;
#X obj 609 355 / 255;
#X obj 761 351 / 255;
#X obj 636 199 unpack 0 0 0 0, f 26;
#X obj 609 393 s knob1;
#X obj 762 387 s knob2;
#X obj 448 241 s keys;
#X obj 456 107 routeOSC /key /knobs, f 68;
#N canvas 8 50 538 322 smooth-simple 0;
#X obj 93 104 t f f;
#X obj 90 21 inlet;
#X obj 96 172 outlet;
#X obj 99 143 f;
#X obj 135 144 f;
#X obj 89 69 expr 0.1 * $f1 + 0.9 * $f2;
#X connect 0 0 3 0;
#X connect 0 1 4 0;
#X connect 1 0 5 0;
#X connect 3 0 2 0;
#X connect 4 0 5 1;
#X connect 5 0 0 0;
#X restore 489 371 pd smooth-simple;
#X connect 0 0 10 0;
#X connect 1 0 0 0;
#X connect 2 0 3 0;
#X connect 3 0 4 0;
#X connect 5 0 1 0;
#X connect 6 0 0 0;
#X connect 7 0 2 0;
#X connect 8 0 0 0;
#X connect 9 0 0 0;
#X connect 10 0 11 0;
#X connect 12 0 6 0;
#X connect 12 0 7 0;
#X connect 14 0 21 0;
#X connect 15 0 18 0;
#X connect 16 0 19 0;
#X connect 17 0 15 0;
#X connect 17 1 16 0;
#X connect 21 0 20 0;
#X connect 21 1 17 0;
#X restore 286 54 pd oscio;
#X obj 554 517 s oscOut;
#X obj 551 257 loadbang;
#X obj 551 282 metro 555;
#X obj 551 309 i;
#X obj 551 330 + 1;
#X obj 551 353 % 3;
#X obj 551 374 sel 0 1 2;
#X msg 534 410 send /leds 10 0 0 10 0 0, f 28;
#X msg 553 432 send /leds 0 10 0 0 10 0, f 28;
#X msg 573 455 send /leds 0 0 10 0 0 10, f 27;
#X obj 198 415 catch~ out;
#X obj 446 131 test-key 0 500;
#X obj 445 155 test-key 2 500;
#X obj 603 132 knob-test knob1 3;
#X obj 602 155 knob-test knob2 1;
#X obj 196 468 *~ 0.1;
#X connect 7 0 8 0;
#X connect 8 0 9 0;
#X connect 9 0 10 0;
#X connect 10 0 9 1;
#X connect 10 0 11 0;
#X connect 11 0 12 0;
#X connect 12 0 13 0;
#X connect 12 1 14 0;
#X connect 12 2 15 0;
#X connect 13 0 6 0;
#X connect 14 0 6 0;
#X connect 15 0 6 0;
#X connect 16 0 21 0;
#X connect 21 0 0 0;
