#N canvas 242 25 1118 771 12;
#X obj 147 724 outlet~ outL-\$1;
#X obj 678 85 r knob2-\$1;
#X obj 787 84 r knob3-\$1;
#X obj 251 467 waveplayer~;
#X obj 562 84 r loadbang-\$1;
#X obj 489 284 r waveplayer-open;
#X obj 137 246 expr~ if ($v1 > $v2 \, -1 \, 1);
#X obj 128 208 phasor~;
#X obj 115 113 r knob1-\$1;
#X obj 343 118 r knob2-\$1;
#X obj 343 199 sig~;
#X obj 201 400 +~ 0;
#X text 216 22 flip between backwards and forward;
#X text 104 79 how fast;
#X text 324 76 how much fwd vs back;
#X obj 117 153 * 5;
#X obj 343 149 * 0.8;
#X obj 343 173 + 0.1;
#X obj 118 184 + 0.3;
#X obj 223 548 *~ 1;
#X connect 3 0 19 0;
#X connect 5 0 3 0;
#X connect 6 0 11 0;
#X connect 7 0 6 0;
#X connect 8 0 15 0;
#X connect 9 0 16 0;
#X connect 10 0 6 1;
#X connect 11 0 3 0;
#X connect 15 0 18 0;
#X connect 16 0 17 0;
#X connect 17 0 10 0;
#X connect 18 0 7 0;
#X connect 19 0 0 0;
