#N canvas 302 25 1118 771 12;
#X obj 16 34 inlet~ inL-\$1;
#X obj 126 34 inlet~ inR-\$1;
#X obj 243 31 r notesIn-\$1;
#X obj 243 72 s notesOut-\$1;
#X obj 147 724 outlet~ outL-\$1;
#X obj 285 717 outlet~ outR-\$1;
#X obj 294 172 r knob1-\$1;
#X obj 544 172 r knob2-\$1;
#X obj 680 148 r knob3-\$1;
#X obj 251 547 waveplayer~;
#X obj 245 364 sig~ 1;
#X obj 470 281 r loadbang-\$1;
#X obj 325 604 print;
#X obj 223 628 *~ 0.5;
#X obj 746 233 r current-file;
#X msg 439 387 open /sdcard/recordings/\$1.wav;
#X obj 246 292 wrap;
#X obj 276 244 * 8;
#X obj 246 319 * 4;
#X obj 245 399 lop~ 50;
#X connect 2 0 3 0;
#X connect 6 0 17 0;
#X connect 9 0 13 0;
#X connect 9 1 12 0;
#X connect 10 0 19 0;
#X connect 13 0 4 0;
#X connect 13 0 5 0;
#X connect 14 0 15 0;
#X connect 15 0 9 0;
#X connect 16 0 18 0;
#X connect 17 0 16 0;
#X connect 18 0 10 0;
#X connect 19 0 9 0;
