#N canvas 185 26 689 762 12;
#X obj 147 724 outlet~ outL-\$1;
#X obj 285 717 outlet~ outR-\$1;
#X obj 251 467 waveplayer~;
#X obj 488 67 r loadbang-\$1;
#X obj 471 273 r waveplayer-open;
#X obj 327 173 -, f 7;
#X obj 332 125 t f f;
#X obj 319 247 sig~, f 7;
#X obj 256 362 +~;
#X obj 320 206 * 100;
#X obj 223 548 *~ 1;
#X obj 319 277 lop~ 15;
#X obj 328 73 r knob1-\$1;
#X obj 64 172 sig~ 1;
#X obj 64 207 lop~ 10;
#X obj 67 108 * 8;
#X obj 67 129 - 4;
#X obj 69 73 r knob2-\$1;
#X obj 69 550 s flashit;
#X obj 4 497 threshold~ 1.01 100 0.99 100;
#X connect 2 0 10 0;
#X connect 4 0 2 0;
#X connect 5 0 9 0;
#X connect 6 0 5 1;
#X connect 6 1 5 0;
#X connect 7 0 11 0;
#X connect 8 0 2 0;
#X connect 9 0 7 0;
#X connect 10 0 0 0;
#X connect 10 0 1 0;
#X connect 11 0 8 1;
#X connect 12 0 6 0;
#X connect 13 0 14 0;
#X connect 14 0 19 0;
#X connect 14 0 8 0;
#X connect 15 0 16 0;
#X connect 16 0 13 0;
#X connect 17 0 15 0;
#X connect 19 0 18 0;
#X connect 19 1 18 0;
