#N canvas 185 26 1118 771 12;
#X obj 147 724 outlet~ outL-\$1;
#X obj 285 717 outlet~ outR-\$1;
#X obj 533 90 r knob2-\$1;
#X obj 642 89 r knob3-\$1;
#X obj 251 467 waveplayer~;
#X obj 417 89 r loadbang-\$1;
#X obj 489 284 r waveplayer-open;
#X obj 123 222 sig~ 1;
#X obj 123 257 lop~ 50;
#X obj 123 170 * 4;
#X obj 123 141 r knob1-\$1;
#X obj 238 145 -, f 7;
#X obj 238 107 t f f;
#X obj 240 236 sig~, f 7;
#X obj 256 362 +~;
#X obj 238 73 r knob2-\$1;
#X obj 241 195 * 100;
#X obj 240 266 lop~ 1;
#X obj 93 456 s flashit;
#X obj 28 376 threshold~ 1.01 100 0.99 100;
#X obj 223 548 *~ 1;
#X connect 4 0 20 0;
#X connect 6 0 4 0;
#X connect 7 0 8 0;
#X connect 8 0 14 0;
#X connect 8 0 19 0;
#X connect 9 0 7 0;
#X connect 10 0 9 0;
#X connect 11 0 16 0;
#X connect 12 0 11 1;
#X connect 12 1 11 0;
#X connect 13 0 17 0;
#X connect 14 0 4 0;
#X connect 15 0 12 0;
#X connect 16 0 13 0;
#X connect 17 0 14 1;
#X connect 19 0 18 0;
#X connect 19 1 18 0;
#X connect 20 0 0 0;
#X connect 20 0 1 0;
