#N canvas 206 25 1107 770 10;
#X declare -path lib;
#X obj 457 262 tgl 15 0 empty empty empty 17 7 0 10 #fcfcfc #000000
#000000 0 1;
#X obj 515 452 adc~ 1;
#X obj 513 486 hip~ 5;
#X obj 202 631 hip~ 5;
#X obj 274 729 dac~;
#X obj 423 318 sel 0 1;
#X obj 884 440 sel 0 1;
#X obj 885 414 r recled;
#X obj 485 300 s recled;
#X obj 623 640 writesf~;
#X obj 203 595 waveplayer~;
#X msg 580 480 start;
#X msg 374 446 close;
#X obj 588 414 delay 10;
#X msg 426 447 stop;
#X obj 264 483 delay 10;
#X obj 299 34 loadbang;
#X obj 299 56 delay 100;
#X obj 447 344 t b b;
#X msg 632 603 open sounds/\$1.wav;
#X obj 588 442 t b b;
#X msg 310 157 1;
#X msg 202 552 open sounds/\$1.wav;
#X obj 635 505 + 1;
#X obj 623 566 v curfile;
#X obj 257 516 v curfile;
#X obj 199 482 r playit;
#X obj 909 245 v curfile;
#X obj 909 267 + 1;
#X obj 877 349 s playit;
#X obj 619 235 v curfile;
#X obj 601 346 s playit;
#X obj 619 261 - 1;
#X obj 54 408 sig~ 1;
#X obj -125 403 * 8;
#X obj -125 426 - 4;
#X obj 705 567 v totalfiles;
#X obj 355 137 v totalfiles;
#X obj 299 79 t b b b;
#X obj 601 203 t b b b;
#X obj 720 236 v totalfiles;
#X obj 877 215 t b b b;
#X obj 889 291 expr if($f1 > $f2 \, 1 \, $f1);
#X obj 629 286 expr if($f1 < 1 \, $f2 \, $f1);
#X obj 986 244 v totalfiles;
#X obj 309 183 v curfile;
#X obj 341 160 print files;
#X obj 634 473 v curfile;
#N canvas 6 50 450 300 countfiles 0;
#X obj 111 119 folder_list;
#X msg 111 80 symbol ./sounds/*;
#X obj 111 173 f 0;
#X obj 111 146 t b;
#X obj 146 172 + 1;
#X obj 111 199 t f f;
#X obj 93 51 t b b b;
#X obj 93 225 f;
#X msg 153 146 1;
#X obj 91 253 outlet;
#X obj 90 15 inlet;
#X connect 0 0 3 0;
#X connect 1 0 0 0;
#X connect 2 0 5 0;
#X connect 3 0 2 0;
#X connect 4 0 2 1;
#X connect 5 0 7 1;
#X connect 5 1 4 0;
#X connect 6 0 7 0;
#X connect 6 1 1 0;
#X connect 6 2 8 0;
#X connect 7 0 9 0;
#X connect 8 0 2 1;
#X connect 10 0 6 0;
#X restore 355 113 pd countfiles;
#X obj 341 396 t b b;
#X obj 254 117 s playit;
#X obj 638 534 t f f f;
#X obj 46 22 declare -path lib;
#N canvas 117 114 810 356 init 0;
#X msg 145 167 \; pd dsp 1;
#X obj 648 147 s osc-init;
#X obj 238 42 loadbang;
#X obj 240 79 t b b b b b b b b b, f 55;
#X obj 48 181 s unmute-dac;
#X connect 2 0 3 0;
#X connect 3 0 4 0;
#X connect 3 1 0 0;
#X connect 3 8 1 0;
#X restore 38 52 pd init;
#N canvas 128 94 1122 487 oscio 0;
#X obj 70 209 udpsend;
#X obj 95 174 packOSC;
#X obj 252 154 udpreceive;
#X obj 252 176 unpackOSC;
#X obj 252 204 s oscIn;
#X obj 92 145 r oscOut;
#X msg 70 119 connect localhost 4001;
#X msg 252 124 port 4000;
#X msg 12 66 connect 192.168.1.129 4001;
#X msg 161 183 disconnect;
#X obj 61 235 sel 1;
#X obj 45 262 s net-connected;
#X obj 181 30 r osc-init, f 11;
#X obj 553 66 r oscIn;
#X obj 563 164 route 0 1 2 3;
#X obj 539 210 sel 0;
#X obj 567 239 t b;
#X obj 596 208 sel 0;
#X obj 624 237 t b;
#X obj 646 207 sel 0;
#X obj 674 236 t b;
#X obj 698 210 sel 0;
#X obj 726 239 t b;
#X obj 542 287 s prev;
#X obj 774 184 unpack 0 0;
#X obj 774 265 s knob1;
#X obj 845 248 s knob2;
#X obj 555 121 routeOSC /key /knobs;
#X obj 608 283 s playrec;
#X obj 674 282 s next;
#X obj 774 223 / 255;
#X obj 832 220 / 255;
#X connect 0 0 10 0;
#X connect 1 0 0 0;
#X connect 2 0 3 0;
#X connect 3 0 4 0;
#X connect 5 0 1 0;
#X connect 6 0 0 0;
#X connect 7 0 2 0;
#X connect 8 0 0 0;
#X connect 9 0 0 0;
#X connect 10 0 11 0;
#X connect 12 0 6 0;
#X connect 12 0 7 0;
#X connect 13 0 27 0;
#X connect 14 0 15 0;
#X connect 14 1 17 0;
#X connect 14 2 19 0;
#X connect 14 3 21 0;
#X connect 15 1 16 0;
#X connect 16 0 23 0;
#X connect 17 1 18 0;
#X connect 18 0 28 0;
#X connect 19 1 20 0;
#X connect 20 0 29 0;
#X connect 21 1 22 0;
#X connect 24 0 30 0;
#X connect 24 1 31 0;
#X connect 27 0 14 0;
#X connect 27 1 24 0;
#X connect 30 0 25 0;
#X connect 31 0 26 0;
#X restore 38 75 pd oscio;
#N canvas 1 277 592 386 leds 0;
#X obj 88 20 array define led1 3;
#X obj 88 42 array define led2 3;
#X obj 96 120 r led-flip;
#X obj 68 177 array get led1;
#X obj 206 175 array get led2;
#X obj 67 204 unpack 0 0 0;
#X obj 206 201 unpack 0 0 0;
#X obj 69 308 s oscOut;
#N canvas 585 50 450 300 ledall 0;
#X obj 64 37 r ledall;
#X obj 27 110 s led1-set;
#X obj 102 109 s led2-set;
#X obj 177 116 s led3-set;
#X obj 64 65 t a a a, f 32;
#X connect 0 0 4 0;
#X connect 4 0 1 0;
#X connect 4 1 2 0;
#X connect 4 2 3 0;
#X restore 230 34 pd ledall;
#X obj 329 47 array set led1;
#X obj 329 24 r led1-set;
#X obj 330 66 r led2-set;
#X obj 330 89 array set led2;
#X msg 66 279 send /leds \$1 \$2 \$3 \$4 \$5 \$6, f 65;
#X obj 67 255 pack 0 0 0 0 0 0, f 43;
#X obj 97 141 t b b;
#X connect 2 0 15 0;
#X connect 3 0 5 0;
#X connect 4 0 6 0;
#X connect 5 0 14 0;
#X connect 5 1 14 1;
#X connect 5 2 14 2;
#X connect 6 0 14 3;
#X connect 6 1 14 4;
#X connect 6 2 14 5;
#X connect 10 0 9 0;
#X connect 11 0 12 0;
#X connect 13 0 7 0;
#X connect 14 0 13 0;
#X connect 15 0 3 0;
#X connect 15 1 4 0;
#X restore 38 100 pd leds;
#X obj 973 520 s led-flip;
#X obj 977 480 t b b;
#X obj 809 532 s led-flip;
#X obj 833 481 t b b;
#X obj 458 140 r playrec;
#X obj 872 146 r next;
#X obj 601 144 r prev;
#X obj 38 127 r knob2;
#X obj 625 312 s curfile;
#X obj 909 322 s curfile;
#X obj 600 22 r curfile;
#X obj 600 43 print;
#X msg 1054 514 100 0 0;
#X msg 865 504 0 100 0;
#X obj -125 378 / 255;
#X obj -61 173 r knob1;
#X obj 361 689 *~;
#X obj -126 245 loadbang;
#X obj -121 347 random 255;
#X obj -95 311 metro 500;
#X obj 54 443 lop~ 10;
#X obj 888 534 s led2-set;
#X obj 1056 541 s led2-set;
#X obj 956 711 s led-flip;
#X obj 960 671 t b b;
#X obj 792 723 s led-flip;
#X obj 816 672 t b b;
#X obj 871 725 s led1-set;
#X obj 1039 732 s led1-set;
#X obj 868 596 r flashit;
#X obj 856 632 delay 50;
#X msg 848 695 0 0 0;
#X msg 1037 705 100 100 100;
#X obj -50 248 + 55;
#X obj -38 350 s flashit;
#X obj 137 406 *~;
#X obj 135 297 sqrt;
#X obj 135 322 * 12;
#X obj 182 276 pow 2;
#X obj 182 329 lop~ 10;
#X obj 115 363 osc~ 0;
#X obj 177 237 r knob1;
#X obj 56 331 * 8;
#X obj 63 356 - 4;
#X obj -61 195 * 3000;
#X obj 59 305 r knob2;
#X obj 89 486 +~;
#X obj 180 305 * 2;
#X floatatom 63 249 5 0 0 0 - - - 0;
#X obj 58 380 i;
#X connect 0 0 5 0;
#X connect 0 0 8 0;
#X connect 1 0 2 0;
#X connect 2 0 9 0;
#X connect 2 0 72 0;
#X connect 3 0 4 0;
#X connect 3 0 4 1;
#X connect 5 0 49 0;
#X connect 5 1 18 0;
#X connect 6 0 59 0;
#X connect 6 1 57 0;
#X connect 7 0 6 0;
#X connect 10 0 3 0;
#X connect 11 0 9 0;
#X connect 13 0 20 0;
#X connect 14 0 9 0;
#X connect 15 0 25 0;
#X connect 16 0 17 0;
#X connect 17 0 38 0;
#X connect 18 0 13 0;
#X connect 18 1 12 0;
#X connect 19 0 9 0;
#X connect 20 0 11 0;
#X connect 20 1 47 0;
#X connect 21 0 45 0;
#X connect 22 0 10 0;
#X connect 23 0 51 0;
#X connect 25 0 22 0;
#X connect 26 0 25 0;
#X connect 27 0 28 0;
#X connect 28 0 42 0;
#X connect 30 0 32 0;
#X connect 32 0 43 0;
#X connect 33 0 76 0;
#X connect 34 0 35 0;
#X connect 38 0 50 0;
#X connect 38 1 21 0;
#X connect 38 2 48 0;
#X connect 39 0 31 0;
#X connect 39 1 30 0;
#X connect 39 2 40 0;
#X connect 40 0 43 1;
#X connect 41 0 29 0;
#X connect 41 1 27 0;
#X connect 41 2 44 0;
#X connect 42 0 65 0;
#X connect 43 0 64 0;
#X connect 44 0 42 1;
#X connect 47 0 23 0;
#X connect 48 0 37 0;
#X connect 48 0 46 0;
#X connect 49 0 15 0;
#X connect 49 1 14 0;
#X connect 51 0 24 0;
#X connect 51 1 36 0;
#X connect 51 2 19 0;
#X connect 57 0 56 0;
#X connect 57 1 68 0;
#X connect 59 0 58 0;
#X connect 59 1 69 0;
#X connect 60 0 0 0;
#X connect 61 0 41 0;
#X connect 62 0 39 0;
#X connect 66 0 67 0;
#X connect 68 0 78 0;
#X connect 69 0 77 0;
#X connect 70 0 34 0;
#X connect 71 0 100 0;
#X connect 73 0 75 0;
#X connect 74 0 70 0;
#X connect 75 0 74 0;
#X connect 75 0 90 0;
#X connect 76 0 102 0;
#X connect 80 0 79 0;
#X connect 80 1 88 0;
#X connect 82 0 81 0;
#X connect 82 1 87 0;
#X connect 85 0 86 0;
#X connect 85 0 80 0;
#X connect 86 0 82 0;
#X connect 87 0 83 0;
#X connect 88 0 84 0;
#X connect 89 0 75 1;
#X connect 91 0 102 1;
#X connect 92 0 93 0;
#X connect 93 0 96 0;
#X connect 94 0 103 0;
#X connect 95 0 91 1;
#X connect 96 0 91 0;
#X connect 97 0 94 0;
#X connect 97 0 92 0;
#X connect 98 0 99 0;
#X connect 99 0 105 0;
#X connect 100 0 89 0;
#X connect 101 0 98 0;
#X connect 102 0 10 0;
#X connect 103 0 95 0;
#X connect 104 0 98 0;
#X connect 105 0 33 0;
