#N canvas 302 25 1118 771 12;
#X obj 147 724 outlet~ outL-\$1;
#X obj 285 717 outlet~ outR-\$1;
#X obj 252 91 r knob1-\$1;
#X obj 533 90 r knob2-\$1;
#X obj 642 89 r knob3-\$1;
#X obj 251 467 waveplayer~;
#X obj 248 258 sig~ 1;
#X obj 248 293 lop~ 10;
#X obj 244 196 * 8;
#X obj 247 228 - 4;
#X obj 417 89 r loadbang-\$1;
#X obj 223 548 *~ 0.5;
#X obj 699 185 r waveplayer-open;
#X connect 2 0 8 0;
#X connect 5 0 11 0;
#X connect 6 0 7 0;
#X connect 7 0 5 0;
#X connect 8 0 9 0;
#X connect 9 0 6 0;
#X connect 11 0 0 0;
#X connect 11 0 1 0;
#X connect 12 0 5 0;
