#N canvas 242 25 1118 771 12;
#X obj 224 693 outlet~ outL-\$1;
#X obj 533 90 r knob2-\$1;
#X obj 642 89 r knob3-\$1;
#X obj 251 467 waveplayer~;
#X obj 417 89 r loadbang-\$1;
#X obj 489 284 r waveplayer-open;
#X obj 82 233 sig~ 1;
#X obj 82 268 lop~ 10;
#X obj 237 303 *~;
#X obj 235 194 sqrt;
#X obj 235 219 * 12;
#X obj 282 173 pow 2;
#X obj 282 226 lop~ 10;
#X obj 215 260 osc~ 0;
#X obj 82 161 * 8;
#X obj 82 182 - 4;
#X obj 280 202 * 2;
#X obj 277 134 r knob1-\$1;
#X obj 79 90 r knob2-\$1;
#X obj 244 405 +~;
#X obj 85 449 s flashit;
#X obj 20 396 threshold~ 1.01 100 0.99 100;
#X obj 223 548 *~ 1;
#X connect 3 0 22 0;
#X connect 5 0 3 0;
#X connect 6 0 7 0;
#X connect 7 0 19 0;
#X connect 7 0 21 0;
#X connect 8 0 19 1;
#X connect 9 0 10 0;
#X connect 10 0 13 0;
#X connect 11 0 16 0;
#X connect 12 0 8 1;
#X connect 13 0 8 0;
#X connect 14 0 15 0;
#X connect 15 0 6 0;
#X connect 16 0 12 0;
#X connect 17 0 11 0;
#X connect 17 0 9 0;
#X connect 18 0 14 0;
#X connect 19 0 3 0;
#X connect 21 0 20 0;
#X connect 21 1 20 0;
#X connect 22 0 0 0;
