#N canvas 4 50 450 399 10;
#X obj 171 299 *~;
#X obj 230 241 line~;
#X obj 219 265 *~;
#X msg 212 207 1 10;
#X msg 257 206 0 200;
#X obj 171 329 throw~ out;
#X obj 239 114 sel 1 0;
#X obj 132 201 osc~;
#X obj 125 110 mtof;
#X obj 125 61 * 12;
#X obj 125 84 + 60;
#X obj 125 131 sig~;
#X obj 125 152 lop~ 5;
#X obj 125 37 r \$1;
#X obj 240 59 r keys;
#X obj 235 82 route \$2;
#X connect 0 0 5 0;
#X connect 1 0 2 1;
#X connect 1 0 2 0;
#X connect 2 0 0 1;
#X connect 3 0 1 0;
#X connect 4 0 1 0;
#X connect 6 0 3 0;
#X connect 6 1 4 0;
#X connect 7 0 0 0;
#X connect 8 0 11 0;
#X connect 9 0 10 0;
#X connect 10 0 8 0;
#X connect 11 0 12 0;
#X connect 12 0 7 0;
#X connect 13 0 9 0;
#X connect 14 0 15 0;
#X connect 15 0 6 0;
