#N canvas 322 41 1118 771 12;
#X obj 213 724 outlet~ outL-\$1;
#X obj 351 724 outlet~ outR-\$1;
#X obj 891 17 r knob2-\$1;
#X obj 1000 16 r knob3-\$1;
#X obj 132 393 waveplayer~;
#X obj 775 16 r loadbang-\$1;
#X obj 132 427 *~ 0.5;
#X obj 133 324 r waveplayer-open;
#X obj 82 176 sig~ 1;
#X obj 82 206 lop~ 10;
#X obj 82 104 * 8;
#X obj 82 125 - 4;
#X obj 82 27 r knob2-\$1;
#X obj 82 326 +~;
#X obj 468 393 waveplayer~;
#X obj 468 428 *~ 0.5;
#X obj 469 324 r waveplayer-open;
#X obj 417 176 sig~ 1;
#X obj 417 206 lop~ 10;
#X obj 418 326 +~;
#X obj 417 104 * -8;
#X obj 417 126 + 4;
#X obj 468 553 *~;
#X obj 279 430 r knob1-\$1;
#X obj 132 553 *~;
#X obj 279 457 expr 1-$f1;
#X text 244 483 max left = 100% backwards;
#X text 244 501 max right = 100% forwards;
#X text 244 522 middle = 50/50;
#X text 222 541 (assuming knob2 is playing fwd);
#X obj 226 292 s flashit;
#X obj 161 239 threshold~ 1.01 100 0.99 100;
#X connect 4 0 6 0;
#X connect 6 0 24 0;
#X connect 7 0 4 0;
#X connect 8 0 9 0;
#X connect 9 0 13 0;
#X connect 9 0 31 0;
#X connect 10 0 11 0;
#X connect 11 0 8 0;
#X connect 12 0 10 0;
#X connect 12 0 20 0;
#X connect 13 0 4 0;
#X connect 14 0 15 0;
#X connect 15 0 22 0;
#X connect 16 0 14 0;
#X connect 17 0 18 0;
#X connect 18 0 19 0;
#X connect 19 0 14 0;
#X connect 20 0 21 0;
#X connect 21 0 17 0;
#X connect 22 0 0 0;
#X connect 22 0 1 0;
#X connect 23 0 25 0;
#X connect 23 0 24 1;
#X connect 24 0 0 0;
#X connect 24 0 1 0;
#X connect 25 0 22 1;
#X connect 31 0 30 0;
#X connect 31 1 30 0;
