#N canvas 242 25 760 763 12;
#X obj 141 689 outlet~ outL-\$1;
#X obj 465 396 waveplayer~;
#X obj 562 84 r loadbang-\$1;
#X obj 486 248 r waveplayer-open;
#X obj 115 113 r knob1-\$1;
#X obj 274 122 r knob2-\$1;
#X obj 189 600 freeverb~;
#X obj 411 268 sig~ 1;
#X msg 78 203 roomsize \$1, f 13;
#X obj 317 173 * -1;
#X obj 317 197 + 1;
#X msg 232 229 wet \$1;
#X msg 288 231 dry \$1;
#X obj 345 485 *~ 0.8;
#X connect 1 0 13 0;
#X connect 3 0 1 0;
#X connect 4 0 8 0;
#X connect 5 0 9 0;
#X connect 5 0 11 0;
#X connect 6 0 0 0;
#X connect 7 0 1 0;
#X connect 8 0 6 0;
#X connect 9 0 10 0;
#X connect 10 0 12 0;
#X connect 11 0 6 0;
#X connect 12 0 6 0;
#X connect 13 0 6 0;
