#N canvas 302 25 1118 771 12;
#X obj 16 34 inlet~ inL-\$1;
#X obj 126 34 inlet~ inR-\$1;
#X obj 243 31 r notesIn-\$1;
#X obj 634 20 r auxIn-\$1;
#X obj 633 43 r expIn-\$1;
#X obj 633 68 r fsIn-\$1;
#X obj 351 31 r ctrlIn-\$1;
#X obj 243 72 s notesOut-\$1;
#X obj 346 68 s ctrlOut-\$1;
#X obj 147 724 outlet~ outL-\$1;
#X obj 285 717 outlet~ outR-\$1;
#X obj 237 226 r knob1-\$1;
#X obj 392 236 r knob2-\$1;
#X obj 681 118 r knob3-\$1;
#X obj 251 547 waveplayer~;
#X obj 248 338 sig~ 1;
#X obj 248 429 lop~ 10;
#X obj 470 281 r loadbang-\$1;
#X obj 325 604 print;
#X obj 223 628 *~ 0.5;
#X obj 746 233 r current-file;
#X msg 439 387 open /sdcard/recordings/\$1.wav;
#X obj 244 276 * 4;
#X obj 386 276 > 0.5;
#X obj 386 300 sel 0 1;
#X msg 392 330 1;
#X msg 351 336 -1;
#X obj 252 386 *~ 1;
#X connect 2 0 7 0;
#X connect 11 0 22 0;
#X connect 12 0 23 0;
#X connect 14 0 19 0;
#X connect 14 1 18 0;
#X connect 15 0 27 0;
#X connect 16 0 14 0;
#X connect 19 0 9 0;
#X connect 19 0 10 0;
#X connect 20 0 21 0;
#X connect 21 0 14 0;
#X connect 22 0 15 0;
#X connect 23 0 24 0;
#X connect 24 0 26 0;
#X connect 24 1 25 0;
#X connect 25 0 27 1;
#X connect 26 0 27 1;
#X connect 27 0 16 0;
