#N canvas 322 25 949 778 12;
#X obj 86 704 outlet~ outL-\$1;
#X obj 83 416 waveplayer~;
#X obj 670 80 r loadbang-\$1;
#X obj 109 372 r waveplayer-open;
#X obj 82 176 sig~ 1;
#X obj 82 206 lop~ 10;
#X obj 199 26 r knob2-\$1;
#X obj 82 326 +~;
#X obj 353 420 waveplayer~;
#X obj 387 373 r waveplayer-open;
#X obj 353 176 sig~ 1;
#X obj 353 206 lop~ 10;
#X obj 353 326 +~;
#X obj 621 493 r knob1-\$1;
#X text 607 429 max left = 100% backwards;
#X text 607 448 max right = 100% forwards;
#X text 607 468 middle = 50/50;
#X text 590 412 (assuming knob2 is playing fwd);
#X obj 493 293 s flashit;
#X obj 412 244 threshold~ 1.01 100 0.99 100;
#X obj 621 522 sig~;
#X obj 621 550 lop~ 10;
#X obj 353 469 *~ 1;
#X obj 83 461 *~ 1;
#X obj 82 104 * -8;
#X obj 82 136 + 4;
#X obj 353 104 * 8;
#X obj 353 137 - 4;
#X text 335 74 forwards;
#X text 30 72 backwards;
#X obj 85 644 expr~ ($v1*(1-$v3*$v3)) + ($v2*($v3*$v3)), f 77;
#X connect 1 0 23 0;
#X connect 3 0 1 0;
#X connect 4 0 5 0;
#X connect 5 0 7 0;
#X connect 6 0 24 0;
#X connect 6 0 26 0;
#X connect 7 0 1 0;
#X connect 8 0 22 0;
#X connect 9 0 8 0;
#X connect 10 0 11 0;
#X connect 11 0 12 0;
#X connect 11 0 19 0;
#X connect 12 0 8 0;
#X connect 13 0 20 0;
#X connect 19 0 18 0;
#X connect 19 1 18 0;
#X connect 20 0 21 0;
#X connect 21 0 30 2;
#X connect 22 0 30 1;
#X connect 23 0 30 0;
#X connect 24 0 25 0;
#X connect 25 0 4 0;
#X connect 26 0 27 0;
#X connect 27 0 10 0;
#X connect 30 0 0 0;
